<?xml version="1.0" encoding="UTF-8" standalone="no"?>
<!DOCTYPE svg PUBLIC "-//W3C//DTD SVG 1.1//EN" "http://www.w3.org/Graphics/SVG/1.1/DTD/svg11.dtd">
<svg width="100%" height="100%" viewBox="0 0 1024 1024" version="1.1" xmlns="http://www.w3.org/2000/svg" xmlns:xlink="http://www.w3.org/1999/xlink" xml:space="preserve" xmlns:serif="http://www.serif.com/" style="fill-rule:evenodd;clip-rule:evenodd;stroke-linejoin:round;stroke-miterlimit:2;">
    <g transform="matrix(2.290693,0,0,2.290693,-78.749697,-69.278674)">
        <path d="M290.204,78.499C320.7,76.961 346.134,92.303 361.849,117.831C392.431,126.842 429.396,141.954 440.265,174.835C444.088,186.399 443.972,197.722 438.598,208.685C442.854,210.867 446.438,214.335 449.881,217.623C482.348,248.635 462.805,321.113 411.091,324.636C406.554,324.946 402.333,324.354 397.902,324.352C394.825,351.125 372.737,377.749 344.901,380.581C323.097,382.8 310.921,368.43 291.001,363.93C260.417,357.021 271.794,410.235 309.355,414.68C312.517,415.068 315.108,415.071 317.976,415.397C322.988,415.965 323.318,424.448 318.819,426.262C307.038,431.669 275.524,428.657 263.787,425.544C239.29,418.319 214.935,391.89 217.127,365.435C213.209,367.52 209.429,369.892 205.367,371.779C164.052,390.971 110.191,373.51 114.717,323.06C87.756,327.417 64.576,318.222 53.031,292.1C39.733,262.012 46.127,220.296 79.085,206.218C76.583,197.237 74.377,188.621 74.819,179.2C76.77,137.609 110.014,110.188 150.959,111.998C168.525,77.404 222.69,72.267 252.89,93.023C264.613,83.654 275.513,80.073 290.204,78.499ZM176.315,150.355C179.242,146.976 186.152,135.128 190.257,138.793C193.465,141.656 188.107,146.248 186.547,148.747C203.243,148.498 217.154,149.973 229.911,162.964C232.068,165.261 243.124,175.894 238.567,179.363C233.558,183.177 230.095,173.753 226.736,169.926C216.65,158.448 202.335,155.18 187.812,155.749C191.566,157.335 192.801,157.765 195.587,160.714C208.053,168.433 176.268,185.422 163.831,177.046C159.376,174.046 154.173,165.994 153.362,160.714C149.087,155.803 145.437,148.563 144.797,142.01C121.528,148.909 110.073,170.809 109.634,194.047C109.557,198.1 110,202.193 109.73,206.218C125.683,209.702 119.575,217.735 115.405,216.212C105.264,212.506 97.098,208.753 85.636,212.831C86.201,213.897 86.713,214.862 87.222,215.962C102.939,205.868 129.508,224.146 117.136,223.781C46.423,221.694 66.771,314.023 115.76,284.549C124.062,279.554 133.468,274.088 142.882,279.919C154.853,286.736 150.482,298.568 149.253,309.503C146.388,335.007 164.927,350.611 189.591,344.419C208.647,340.281 219.607,327.323 233.119,323.41C242.067,320.892 251.136,328.15 253.103,336.672C254.596,343.139 246.058,373.485 250.951,379.712C251.148,379.304 252.016,372.426 252.25,371.205C259.281,335.34 289.509,336.534 316.705,348.046C338.62,357.323 359.467,341.598 365.697,319.674C360.917,319.542 360.843,316.95 359.001,312.936C348.542,290.139 330.748,266.701 303.658,264.803C294.545,264.258 298.627,250.712 323.542,262.731C343.913,272.652 359.469,292.938 367.112,314.008C369.495,307.825 367.81,299.05 374.436,295.482C381.52,291.667 397.873,306.54 418.904,294.778C429.932,288.666 435.794,277.127 439.293,265.519C442.775,253.967 442.373,247.943 431.884,240.944C416.136,230.436 384.754,240.931 376.289,223.692C366.758,204.284 408.759,198.993 411.394,188.006C415.858,169.394 393.012,145.906 375.766,140.776C361.908,136.556 361.914,141.241 353.899,126.494C350.335,122.18 349.355,118.659 344.485,114.023C341.2,113.338 338.016,111.706 334.302,111.128C311.478,107.572 283.667,108.957 266.584,126.543C264.918,128.311 245.494,149.709 244.795,137.254C243.392,112.234 274.158,93.251 296.579,91.853C300.993,91.578 306.605,92.51 310.6,92.068C282.84,84.116 248.972,99.428 243.927,129.482C243.738,130.605 243.19,134.684 242.596,135.197C231.051,145.177 236.016,118.793 237.924,114.023C212.823,108.965 172.987,118.275 176.315,150.355ZM232.365,390.218C232.377,389.56 231.741,386.477 231.574,385.748C229.589,377.044 229.746,368.363 230.247,359.505C230.466,355.633 231.768,350.574 231.406,346.716C227.006,354.204 226.071,356.084 219.644,362.542C220.86,371.182 226.749,383.633 232.365,390.218ZM118.888,303.947C106.674,309.752 103.785,308.736 92.463,311.2C99.899,313.105 109.08,312.3 116.631,311.2C117.394,308.977 118.161,306.246 118.888,303.947ZM125.75,334.185C125.94,332.991 125.801,330.453 125.834,329.088C126.156,315.794 131.672,304.874 135.359,292.537C124.071,303.733 120.41,317.993 125.405,333.138L125.75,334.185ZM430.624,183.231C430.023,184.546 430.085,187.546 429.554,189.394C428.323,193.679 426.559,197.572 424.436,201.467C425.846,201.745 428.236,202.555 429.689,203.002C431.818,197.296 431.995,189.115 430.624,183.231ZM383.368,319.674C380.791,334.012 371.75,346.506 359.871,354.762C346.317,364.182 336.842,363.429 321.973,364.075C348.396,376.878 371.116,361.807 385.047,338.222C388.016,333.195 389.654,327.575 393.286,323.06C388.888,322.047 387.579,321.61 383.368,319.674ZM83.278,205.159C85.24,204.792 87.246,204.392 89.21,204.065C82.235,180.978 91.469,154.494 107.229,137.199C107.292,137.087 107.354,136.974 107.417,136.862C86.184,152.12 76.591,180.001 83.278,205.159ZM436.373,211.528C428.184,220.789 422.654,214.598 426.573,208.685C425.313,208.357 423.476,207.701 422.192,207.288C419.409,210.673 415.228,216.59 412.747,220.183C424.919,220.678 439.499,223.151 448.54,232.282C449.546,233.298 450.981,235.521 451.867,236.254C449.247,224.962 442.746,219.718 436.373,211.528ZM85.636,217.175C84.523,215.826 84.16,215.294 83.278,213.781C76.909,216.751 69.106,223.975 66.395,230.439C72.208,227.172 75.237,219.122 85.636,217.175ZM161.329,152.24C158.838,138.152 158.901,128.859 167.157,116.18C176.289,102.158 194.177,94.7 210.339,93.258C212.517,93.064 214.886,92.893 217.006,92.427L217.127,92.068C211.819,92.16 205.973,91.691 200.908,92.48C178.259,96.009 154.867,111.939 156.164,137.322C156.456,143.058 157.178,147.86 161.329,152.24ZM226.897,337.794C225.824,338.223 222.594,340.918 221.524,341.822C202.414,357.973 175.211,365.88 150.742,359.124C137.922,355.584 138.746,352.445 130.574,346.716C146.203,379.313 201.938,370.342 222.326,344.434C223.869,342.472 225.896,340.043 226.897,337.794Z" style="fill-rule:nonzero;"/>
    </g>
    <g transform="matrix(2.290693,0,0,2.290693,-78.749697,-69.278674)">
        <path d="M225.676,209.729C230.451,209.654 231.201,214.239 226.093,217.798C215.963,224.857 211.101,235.573 206.277,246.511C211.411,266.145 187.116,272.281 173.124,262.96C155.11,249.598 179.209,225.006 201.999,240.504C204.731,230.374 215.988,213.986 225.676,209.729ZM187.812,260.911C205.96,259.324 204.266,241.511 185.476,242.329C167.882,242.382 170.612,261.933 187.812,260.911Z" style="fill-rule:nonzero;"/>
    </g>
    <g transform="matrix(2.290693,0,0,2.290693,-78.749697,-69.278674)">
        <path d="M185.476,243.56C197.447,242.84 200.327,259.409 185.476,259.023C171.552,257.523 172.353,245.496 185.476,243.56Z" style="fill:rgb(234,125,255);fill-rule:nonzero;"/>
    </g>
    <g transform="matrix(2.290693,0,0,2.290693,-78.749697,-69.278674)">
        <path d="M332.029,222.299C332.875,222.177 334.778,221.856 335.215,222.889C350.173,258.243 387.666,263.539 422.192,254.194C417.918,251.797 411.865,248.703 408.953,244.679C407.031,242.022 411.206,239.676 412.621,240.52C417.659,243.525 432.945,250.783 434.967,255.13C434.202,257.542 433.781,258.211 432.187,260.11C430.221,262.297 411.395,286.163 410.241,276.695C409.759,272.743 416.913,265.84 419.44,262.96C389.441,269.325 353.796,265.579 335.631,237.962C333.183,234.24 326.796,225.406 332.029,222.299Z" style="fill-rule:nonzero;"/>
    </g>
    <g transform="matrix(2.290693,0,0,2.290693,-78.749697,-69.278674)">
        <path d="M249.193,180.828C273.907,177.602 282.352,207.321 252.89,215.962C247.227,215.579 242.515,215.282 237.615,212.054C223.322,202.694 232.456,183.741 249.193,180.828ZM261.524,204.065C265.859,200.483 266.383,194.828 262.556,190.725C251.157,178.5 228.61,196.627 240.438,206.218C240.231,204.441 239.767,203.091 239.586,201.051C238.093,184.194 270.29,183.108 261.524,204.065Z" style="fill-rule:nonzero;"/>
    </g>
    <g transform="matrix(2.290693,0,0,2.290693,-78.749697,-69.278674)">
        <path d="M240.438,206.218C240.231,204.441 239.767,203.091 239.586,201.051C238.093,184.194 270.29,183.108 261.524,204.065C256.971,210.123 246.276,210.981 240.438,206.218Z" style="fill:rgb(234,125,255);fill-rule:nonzero;"/>
    </g>
    <g transform="matrix(2.290693,0,0,2.290693,-78.749697,-69.278674)">
        <path d="M270.962,236.254C295.611,235.332 303.735,267.668 283.13,273.35C260.775,275.944 248.224,241.657 270.962,236.254Z" style="fill-rule:nonzero;"/>
    </g>
    <g transform="matrix(2.290693,0,0,2.290693,-78.749697,-69.278674)">
        <path d="M272.531,242.329C287.768,242.404 295.18,262.333 281.837,267.233C268.133,269.386 257.185,244.585 272.531,242.329Z" style="fill:rgb(234,125,255);fill-rule:nonzero;"/>
    </g>
    <g transform="matrix(2.290693,0,0,2.290693,-78.749697,-69.278674)">
        <path d="M210.008,261.733C213.496,261.707 222.219,271.282 230.53,273.345C238.001,275.2 245.192,272.035 252.747,272.209C276.036,272.746 293.129,297.827 298.427,318.141C299.587,322.59 302.131,326.427 298.156,329.91C296.36,330.232 294.421,329.814 293.877,327.943C288.098,308.08 275.27,277.476 249.834,279.244C242.637,280.049 235.376,281.87 228.139,279.817C223.969,278.634 199.633,267.473 210.008,261.733Z" style="fill-rule:nonzero;"/>
    </g>
    <g transform="matrix(2.290693,0,0,2.290693,-78.749697,-69.278674)">
        <path d="M100.604,232.503C103.507,232.205 106.58,234.112 105.463,237.366C104.548,240.029 91.388,250.53 87.222,252.49C94.526,252.336 101.017,250.285 108.152,248.952C123.02,246.174 138.512,243.982 153.627,245.965C166.146,247.607 159.045,253.886 156.779,253.615C153.394,253.211 149.68,252.795 146.27,252.49C129.062,252.159 110.212,255.464 93.316,259.023C100.882,263.432 97.164,269.316 91.736,266.454C88.731,264.869 77.912,257.79 78.224,253.694C78.47,250.455 96.799,235.789 100.604,232.503Z" style="fill-rule:nonzero;"/>
    </g>
    <g transform="matrix(2.290693,0,0,2.290693,-78.749697,-69.278674)">
        <path d="M319.949,121.326C324.737,120.682 325.643,122.242 327.052,126.494C326.058,129.195 324.715,132.324 323.662,135.049C321.062,141.77 314.945,140.372 316.996,132.186C311.074,138.126 311.171,141.805 308.087,149.313C302.468,162.993 291.567,174.486 277.372,179.17C273.737,180.369 266.929,184.858 266.678,177.379C270.878,169.736 292.488,174.848 304.72,138.544C305.57,136.021 306.815,134.15 308.665,132.186L307.358,132.287C305.511,132.424 300.455,133.875 299.156,134.703C295.084,137.297 281.059,128.681 319.949,121.326Z" style="fill-rule:nonzero;"/>
    </g>
    <g transform="matrix(2.290693,0,0,2.290693,-78.749697,-69.278674)">
        <path d="M146.27,185.838C151.908,186.862 150.038,192.252 143.903,193.159L144.25,193.338C157.978,200.398 169.914,202.201 183.996,196.527C186.15,195.706 197.53,186.703 197.913,193.524C198.362,201.51 178.068,206.532 172.313,207.288C159.732,207.579 150.841,204.222 139.879,198.996C141.874,202.917 144.467,206.137 146.752,209.837C147.935,212.178 144.416,215.976 142.034,213.833C139.254,211.332 120.872,187.708 131.829,186.955C136.623,186.626 141.428,186.481 146.27,185.838Z" style="fill-rule:nonzero;"/>
    </g>
    <g transform="matrix(2.290693,0,0,2.290693,-78.749697,-69.278674)">
        <path d="M327.052,189.824C344.992,187.311 353.366,208.935 327.052,217.175C322.683,216.771 318.487,216.826 314.753,214.173C303.45,206.14 314.718,191.906 327.052,189.824ZM335.605,197.859C336.082,199.32 337.129,199.577 336.633,201.763C334.213,212.435 310.028,209.857 321.06,200.613C324.171,198.007 327.445,197.99 330.773,196.253C326.473,196.116 322.857,197.253 319.533,200.085C308.47,209.511 332.451,217.291 337.996,200.056C337.106,198.908 336.838,198.627 335.605,197.859Z" style="fill-rule:nonzero;"/>
    </g>
    <g transform="matrix(2.290693,0,0,2.290693,-78.749697,-69.278674)">
        <path d="M330.773,196.253C332.54,196.212 334.239,196.698 335.605,197.859C336.082,199.32 337.129,199.577 336.633,201.763C334.213,212.435 310.028,209.857 321.06,200.613C324.171,198.007 327.445,197.99 330.773,196.253Z" style="fill:rgb(234,125,255);fill-rule:nonzero;"/>
    </g>
    <g transform="matrix(2.290693,0,0,2.290693,-78.749697,-69.278674)">
        <path d="M391.597,166.986C395.23,167.062 404.182,176.504 407.894,179.29C415.15,184.735 391.683,194.284 387.578,196.52C384.174,198.063 381.446,192.988 384.235,190.965C388.22,188.075 392.934,185.98 397.061,183.231C390.128,181.425 380.829,180.889 373.807,182.006C366.091,183.267 355.753,186.757 349.697,192.147C344.448,196.818 335.473,188.636 357.061,179.581C369.064,174.103 380.519,173.878 393.286,175.394C390.103,173.197 386.418,169.553 391.597,166.986Z" style="fill-rule:nonzero;"/>
    </g>
    <g transform="matrix(2.290693,0,0,2.290693,-78.749697,-69.278674)">
        <path d="M178.756,291.257C191.462,290.848 199.719,293.502 210.008,300.531C207.698,290.892 214.574,291.749 215.711,294.844C222.119,312.286 226.617,313.395 206.277,313.247L201.999,313.247C196.056,310 200.29,306.271 206.277,306.51C194.546,297.536 182.177,296.614 168.132,299.91C164.047,300.869 155.523,294.09 178.756,291.257Z" style="fill-rule:nonzero;"/>
    </g>
    <g transform="matrix(2.290693,0,0,2.290693,-78.749697,-69.278674)">
        <path d="M333.52,314.008C344.201,312.863 331.415,327.262 329.66,329.91C337.012,327.701 344.265,324.423 351.73,322.617C355.611,321.874 356.389,327.99 353.249,329.079C346.809,331.312 338.582,334.903 332.029,336.322L328.938,337.794C331.461,339.464 338.582,342.795 338.292,346.531C337.567,355.859 319.308,339.53 317.847,336.966C316.567,334.719 329.45,316.226 333.52,314.008Z" style="fill-rule:nonzero;"/>
    </g>
    <g transform="matrix(2.290693,0,0,2.290693,-78.749697,-69.278674)">
        <path d="M352.602,139.228C354.721,139.035 357.123,140.362 357.319,142.427C357.745,146.913 328.347,159.204 328.938,186.732C328.087,187.332 327.225,187.763 326.31,188.257C319.29,189.948 322.416,179.215 323.29,176.007C327.341,161.151 339.222,146.771 352.602,139.228Z" style="fill-rule:nonzero;"/>
    </g>
    <g transform="matrix(2.290693,0,0,2.290693,-78.749697,-69.278674)">
        <path d="M308.665,212.831C313.999,212.378 315.031,216.816 310.673,219.565C300.642,225.895 298.868,233.396 293.099,237.891C277.751,239.735 301.811,215.361 308.665,212.831Z" style="fill-rule:nonzero;"/>
    </g>
    <g transform="matrix(2.290693,0,0,2.290693,-78.749697,-69.278674)">
        <path d="M353.899,126.494C360.502,129.718 368.235,131.432 375.367,134.183C397.512,142.724 426.164,157.188 430.624,183.231C430.023,184.546 430.085,187.546 429.554,189.394C428.323,193.679 426.559,197.572 424.436,201.467C394.429,195.165 373.661,219.453 384.654,222.35C386.534,222.846 390.402,217.458 391.768,216.052C404.589,202.859 413.594,209.709 422.192,207.288C419.409,210.673 415.228,216.59 412.747,220.183C424.919,220.678 439.499,223.151 448.54,232.282C449.546,233.298 450.981,235.521 451.867,236.254C455.676,244.753 454.749,261.279 452.996,270.63C447.503,299.923 422.243,320.447 391.981,310.571C386.682,308.842 379.703,300.409 375.81,309.115C373.222,315.006 380.107,317.142 383.368,319.674C380.791,334.012 371.75,346.506 359.871,354.762C346.317,364.182 336.842,363.429 321.973,364.075C304.247,354.863 277.601,340.836 264.189,364.961C253.326,384.503 271.197,406.269 285.872,417.648C268.464,416.905 241.087,406.23 232.365,390.218C232.377,389.56 231.741,386.477 231.574,385.748C229.589,377.044 229.746,368.363 230.247,359.505C230.466,355.633 231.768,350.574 231.406,346.716C232.559,342.994 234.768,338.898 236.169,334.185C232.664,324.237 228.756,333.251 226.897,337.794C225.824,338.223 222.594,340.918 221.524,341.822C202.414,357.973 175.211,365.88 150.742,359.124C137.922,355.584 138.746,352.445 130.574,346.716C128.5,343.601 126.298,337.866 125.75,334.185C125.94,332.991 125.801,330.453 125.834,329.088C126.156,315.794 131.672,304.874 135.359,292.537C136.248,291.357 136.448,290.582 136.932,289.209C132.172,277.719 120.83,299.554 118.888,303.947C106.674,309.752 103.785,308.736 92.463,311.2C88.28,310.656 82.271,307.536 78.815,305.179C55.179,289.065 51.472,253.321 66.395,230.439C72.208,227.172 75.237,219.122 85.636,217.175L86.147,217.179C86.909,216.748 86.846,216.765 87.222,215.962C102.939,205.868 129.508,224.146 117.136,223.781C46.423,221.694 66.771,314.023 115.76,284.549C124.062,279.554 133.468,274.088 142.882,279.919C154.853,286.736 150.482,298.568 149.253,309.503C146.388,335.007 164.927,350.611 189.591,344.419C208.647,340.281 219.607,327.323 233.119,323.41C242.067,320.892 251.136,328.15 253.103,336.672C254.596,343.139 246.058,373.485 250.951,379.712C251.148,379.304 252.016,372.426 252.25,371.205C259.281,335.34 289.509,336.534 316.705,348.046C338.62,357.323 359.467,341.598 365.697,319.674C366.869,317.822 367.28,316.19 367.112,314.008C369.495,307.825 367.81,299.05 374.436,295.482C381.52,291.667 397.873,306.54 418.904,294.778C429.932,288.666 435.794,277.127 439.293,265.519C442.775,253.967 442.373,247.943 431.884,240.944C416.136,230.436 384.754,240.931 376.289,223.692C366.758,204.284 408.759,198.993 411.394,188.006C415.858,169.394 393.012,145.906 375.766,140.776C361.908,136.556 361.914,141.241 353.899,126.494Z" style="fill:rgb(234,125,255);fill-rule:nonzero;"/>
    </g>
    <g transform="matrix(2.290693,0,0,2.290693,-78.749697,-69.278674)">
        <path d="M217.127,92.068C230.112,94.153 234.358,97.001 245.486,101.094C241.893,106.084 240.367,108.262 237.924,114.023C212.823,108.965 172.987,118.275 176.315,150.355C169.33,159.796 176.847,159.23 185.697,163.41C190.633,165.741 194.696,167.753 195.587,160.714C208.053,168.433 176.268,185.422 163.831,177.046C159.376,174.046 154.173,165.994 153.362,160.714C156.803,162.571 170.482,175.257 172.51,164.331C173.49,159.053 164.418,157.07 161.329,152.24C158.838,138.152 158.901,128.859 167.157,116.18C176.289,102.158 194.177,94.7 210.339,93.258C212.517,93.064 214.886,92.893 217.006,92.427L217.127,92.068Z" style="fill:rgb(234,125,255);fill-rule:nonzero;"/>
    </g>
    <g transform="matrix(2.290693,0,0,2.290693,-78.749697,-69.278674)">
        <path d="M107.417,136.862C116.614,128.062 133.553,121.816 146.27,122.701C144.574,130.543 144.118,133.95 144.797,142.01C121.528,148.909 110.073,170.809 109.634,194.047C109.557,198.1 110,202.193 109.73,206.218C103.159,203.41 96.135,203.59 89.21,204.065C82.235,180.978 91.469,154.494 107.229,137.199C107.292,137.087 107.354,136.974 107.417,136.862Z" style="fill:rgb(234,125,255);fill-rule:nonzero;"/>
    </g>
    <g transform="matrix(2.290693,0,0,2.290693,-78.749697,-69.278674)">
        <path d="M344.485,114.023C341.2,113.338 338.016,111.706 334.302,111.128C311.478,107.572 283.667,108.957 266.584,126.543C264.918,128.311 245.494,149.709 244.795,137.254C243.392,112.234 274.158,93.251 296.579,91.853C300.993,91.578 306.605,92.51 310.6,92.068C321.156,94.35 339.137,104.347 344.485,114.023Z" style="fill:rgb(234,125,255);fill-rule:nonzero;"/>
    </g>
    <g transform="matrix(2.290693,0,0,2.290693,-78.749697,-69.278674)">
        <path d="M176.315,150.355C179.242,146.976 186.152,135.128 190.257,138.793C193.465,141.656 188.107,146.248 186.547,148.747C203.243,148.498 217.154,149.973 229.911,162.964C232.068,165.261 243.124,175.894 238.567,179.363C233.558,183.177 230.095,173.753 226.736,169.926C216.65,158.448 202.335,155.18 187.812,155.749C191.566,157.335 192.801,157.765 195.587,160.714C194.696,167.753 190.633,165.741 185.697,163.41C176.847,159.23 169.33,159.796 176.315,150.355Z" style="fill-rule:nonzero;"/>
    </g>
    <g transform="matrix(2.290693,0,0,2.290693,-78.749697,-69.278674)">
        <path d="M365.697,319.674C360.917,319.542 360.843,316.95 359.001,312.936C348.542,290.139 330.748,266.701 303.658,264.803C294.545,264.258 298.627,250.712 323.542,262.731C343.913,272.652 359.469,292.938 367.112,314.008C367.28,316.19 366.869,317.822 365.697,319.674Z" style="fill-rule:nonzero;"/>
    </g>
</svg>
